<?xml version="1.0" standalone="no"?>
<!DOCTYPE svg PUBLIC "-//W3C//DTD SVG 20010904//EN"
 "http://www.w3.org/TR/2001/REC-SVG-20010904/DTD/svg10.dtd">
<svg version="1.0" xmlns="http://www.w3.org/2000/svg"
 width="176.000000pt" height="176.000000pt" viewBox="0 0 176.000000 176.000000"
 preserveAspectRatio="xMidYMid meet">
<metadata>
Created by potrace 1.11, written by Peter Selinger 2001-2013
</metadata>
<g transform="translate(0.000000,176.000000) scale(0.100000,-0.100000)"
fill="#000000" stroke="none">
<path d="M785 1712 c-52 -48 -203 -185 -243 -220 -24 -21 -162 -146 -257 -232
-33 -30 -93 -84 -133 -120 l-72 -65 0 -168 0 -167 37 32 c20 18 48 44 62 56
l26 24 3 -424 2 -423 116 2 c63 0 120 3 127 6 10 4 12 124 12 536 l-1 532 61
57 c33 31 98 91 144 132 46 41 105 93 129 116 l46 41 0 158 c1 86 -1 161 -4
165 -3 5 -28 -13 -55 -38z"/>
<path d="M919 1724 c0 -21 0 -97 0 -168 l0 -130 33 -31 c18 -17 78 -71 133
-120 55 -49 102 -92 105 -95 3 -3 28 -26 56 -52 l51 -46 1 -514 c0 -282 1
-524 1 -538 l1 -25 117 2 c65 0 121 2 125 2 4 1 9 190 10 421 l3 419 60 -54
60 -53 3 166 3 167 -43 39 c-24 22 -65 60 -93 85 -27 26 -113 103 -190 171
-77 69 -149 134 -161 145 -17 17 -161 147 -199 180 -6 6 -25 23 -43 39 l-32
30 -1 -40z"/>
</g>
</svg>
